#!OML:ASF H:\ManfredETheater\Project 1\Capture day 1\Session 1\subject.ASF
:FULLY-SPECIFIED
:DEGREES
77
root 9.41583 22.5718 9.57078 -180.189 -12.5399 -180.917
lowerback 23.0581 3.0418 5.99069
upperback 3.44219 4.91277 0.594566
thorax -8.56315 1.91288 -4.16545
lowerneck -12.613 -2.15726 -4.0103
upperneck 13.7155 -1.88086 -3.07639
head 6.26045 -1.45024 -0.505287
rclavicle 7.0171e-014 2.46493e-014
rhumerus 29.8857 6.32314 -36.7466
rradius 79.592
rwrist 1.38113
rhand -24.2368 5.92731
rfingers 7.12502
rthumb 2.24866 -24.0406
lclavicle 7.0171e-014 2.46493e-014
lhumerus -6.85214 -4.13685 27.7409
lradius 74.8203
lwrist -1.32295
lhand -28.2097 -14.5508
lfingers 7.12502
lthumb -1.58846 15.4231
rfemur -1.41028 1.83079 19.8174
rtibia 36.9438
rfoot 25.1765 -12.6134
rtoes -0.248912
lfemur -88.2594 6.49792 -1.21713
ltibia 94.4628
lfoot -5.49816 -14.2113
ltoes -10.0933
78
root 9.28526 22.8871 9.23434 -180.568 -11.8333 -180.908
lowerback 23.5414 3.06734 5.97193
upperback 3.75953 4.89056 0.569921
thorax -8.46286 1.88481 -4.19104
lowerneck -12.5374 -2.03216 -3.78567
upperneck 13.6494 -1.72814 -3.30784
head 6.22154 -1.38332 -0.599961
rclavicle 3.53837e-014 -9.54166e-015
rhumerus 28.763 7.51052 -38.571
rradius 78.958
rwrist 1.56485
rhand -24.2733 6.03601
rfingers 7.12502
rthumb 2.21341 -23.9322
lclavicle 3.53837e-014 -9.54166e-015
lhumerus -9.14507 -3.80553 30.2195
lradius 74.7598
lwrist -0.359041
lhand -28.3415 -14.4459
lfingers 7.12502
lthumb -1.71571 15.5269
rfemur -3.84285 1.38898 19.4691
rtibia 43.7277
rfoot 23.8389 -14.0307
rtoes 2.48428
lfemur -86.5492 6.16761 -0.445377
ltibia 92.4743
lfoot -5.56155 -13.1895
ltoes -9.61664
79
root 9.15888 23.2076 8.90035 -180.92 -11.2787 -181.174
lowerback 24.0795 3.07104 5.72872
upperback 4.07924 4.77599 0.466209
thorax -8.40931 1.81495 -4.1537
lowerneck -12.5016 -1.9017 -3.53767
upperneck 13.5565 -1.56766 -3.54965
head 6.18131 -1.31111 -0.701292
rclavicle -4.92986e-014 1.27222e-014
rhumerus 27.4601 8.8119 -40.3413
rradius 78.1583
rwrist 1.9175
rhand -24.3265 6.24642
rfingers 7.12502
rthumb 2.16204 -23.7224
lclavicle -4.92986e-014 1.27222e-014
lhumerus -11.3899 -3.48548 32.7482
lradius 74.7812
lwrist 0.698064
lhand -28.3293 -14.2933
lfingers 7.12502
lthumb -1.70395 15.6796
rfemur -6.23922 0.792457 18.8268
rtibia 50.3243
rfoot 22.2421 -15.4157
rtoes 4.58792
lfemur -84.6783 5.54384 -0.017959
ltibia 90.4443
lfoot -5.56486 -12.0201
ltoes -8.94323
80
root 9.02874 23.4998 8.56511 -181.235 -10.886 -181.707
lowerback 24.6457 3.05834 5.2775
upperback 4.39352 4.57774 0.293258
thorax -8.3944 1.70721 -4.0511
lowerneck -12.489 -1.77265 -3.29437
upperneck 13.4518 -1.40603 -3.79757
head 6.14221 -1.2387 -0.80394
rclavicle -1.78906e-014 -5.00937e-014
rhumerus 26.02 10.2051 -42.0221
rradius 77.1606
rwrist 2.43535
rhand -24.3403 6.28249
rfingers 7.12502
rthumb 2.14871 -23.6864
lclavicle -1.78906e-014 -5.00937e-014
lhumerus -13.5401 -3.21184 35.309
lradius 74.7836
lwrist 1.62783
lhand -28.1954 -14.089
lfingers 7.12502
lthumb -1.57459 15.8849
rfemur -8.65269 -0.00710154 17.8475
rtibia 56.8041
rfoot 20.3059 -16.6776
rtoes 6.28853
lfemur -82.9455 4.69398 0.0555265
ltibia 88.5239
lfoot -5.42237 -10.8064
ltoes -8.07395
81
root 8.89662 23.7789 8.22983 -181.499 -10.6352 -182.449
lowerback 25.2203 3.03884 4.67835
upperback 4.68158 4.32488 0.0703032
thorax -8.42275 1.57429 -3.90234
lowerneck -12.4386 -1.6498 -3.07287
upperneck 13.3287 -1.25327 -4.0372
head 6.09186 -1.17033 -0.90066
rclavicle 1.15295e-014 -1.82882e-014
rhumerus 24.4585 11.6398 -43.6166
rradius 75.8733
rwrist 3.09889
rhand -24.3465 6.26514
rfingers 7.12502
rthumb 2.14268 -23.7038
lclavicle 1.15295e-014 -1.82882e-014
lhumerus -15.5663 -3.03416 37.8888
lradius 74.6813
lwrist 2.23936
lhand -27.995 -13.8531
lfingers 7.12502
lthumb -1.38112 16.1222
rfemur -11.0828 -1.01829 16.5889
rtibia 63.0888
rfoot 18.0912 -17.7624
rtoes 7.71473
lfemur -81.2711 3.66007 -0.183394
ltibia 86.6448
lfoot -5.20973 -9.58534
ltoes -7.05955
82
root 8.76119 24.0418 7.89414 -181.703 -10.5024 -183.315
lowerback 25.7751 3.0146 4.00732
upperback 4.93126 4.04191 -0.174668
thorax -8.48557 1.42755 -3.72459
lowerneck -12.3188 -1.54679 -2.88232
upperneck 13.1802 -1.12817 -4.27313
head 6.02248 -1.11565 -0.992681
rclavicle -5.76476e-014 -1.59028e-015
rhumerus 22.8035 13.0758 -45.1277
rradius 74.2688
rwrist 3.83996
rhand -24.3393 6.16875
rfingers 7.12502
rthumb 2.14969 -23.8002
lclavicle -5.76476e-014 -1.59028e-015
lhumerus -17.459 -2.964 40.4839
lradius 74.4112
lwrist 2.42153
lhand -27.8019 -13.6188
lfingers 7.12502
lthumb -1.19457 16.3576
rfemur -13.5485 -2.23672 15.1333
rtibia 69.1648
rfoot 15.6958 -18.6165
rtoes 9.15873
lfemur -79.708 2.51852 -0.654905
ltibia 84.8395
lfoot -4.96864 -8.42859
ltoes -5.97037
83
root 8.62142 24.2868 7.55757 -181.84 -10.4531 -184.213
lowerback 26.2856 2.98636 3.34437
upperback 5.13801 3.75455 -0.413894
thorax -8.56846 1.27929 -3.53909
lowerneck -12.1282 -1.46992 -2.73806
upperneck 13.0155 -1.03798 -4.49524
head 5.93664 -1.07832 -1.07499
rclavicle 1.19271e-015 -2.22639e-014
rhumerus 21.0847 14.4656 -46.5615
rradius 72.3316
rwrist 4.59288
rhand -24.3269 5.97052
rfingers 7.12502
rthumb 2.16161 -23.9983
lclavicle 1.19271e-015 -2.22639e-014
lhumerus -19.2137 -2.98817 43.0972
lradius 73.9376
lwrist 2.16062
lhand -27.6362 -13.4292
lfingers 7.12502
lthumb -1.03451 16.5481
rfemur -16.0426 -3.63967 13.5829
rtibia 74.955
rfoot 13.1716 -19.1734
rtoes 10.4857
lfemur -78.284 1.34687 -1.26422
ltibia 83.1077
lfoot -4.72762 -7.39727
ltoes -4.86679
84
root 8.47705 24.5125 7.21958 -181.912 -10.4484 -185.059
lowerback 26.7226 2.9553 2.75253
upperback 5.30674 3.48558 -0.623926
thorax -8.64723 1.14093 -3.36196
lowerneck -11.8709 -1.42315 -2.64632
upperneck 12.8325 -0.988052 -4.69406
head 5.83416 -1.06021 -1.14394
rclavicle 4.81059e-014 -3.18055e-015
rhumerus 19.3349 15.761 -47.9233
rradius 70.0774
rwrist 5.26009
rhand -24.2845 5.66346
rfingers 7.12502
rthumb 2.2026 -24.3049
lclavicle 4.81059e-014 -3.18055e-015
lhumerus -20.8249 -3.06426 45.729
lradius 73.2439
lwrist 1.52703
lhand -27.5528 -13.297
lfingers 7.12502
lthumb -0.954022 16.6806
rfemur -18.5685 -5.18817 12.0447
rtibia 80.423
rfoot 10.5581 -19.3872
rtoes 11.5784
lfemur -77.0103 0.218339 -1.91932
ltibia 81.4618
lfoot -4.52418 -6.54489
ltoes -3.84594
85
root 8.32803 24.719 6.87957 -181.927 -10.463 -185.797
lowerback 27.0817 2.91772 2.27799
upperback 5.44002 3.24775 -0.793026
thorax -8.71501 1.0185 -3.21161
lowerneck -11.5701 -1.40875 -2.61789
upperneck 12.65 -0.980247 -4.85193
head 5.72485 -1.06193 -1.19267
rclavicle 4.57205e-014 1.03368e-014
rhumerus 17.5654 16.9266 -49.2205
rradius 67.5368
rwrist 5.81945
rhand -24.2063 5.26189
rfingers 7.12502
rthumb 2.27808 -24.7057
lclavicle 4.57205e-014 1.03368e-014
lhumerus -22.2987 -3.14783 48.3729
lradius 72.3377
lwrist 0.64751
lhand -27.5517 -13.2434
lfingers 7.12502
lthumb -0.952893 16.7342
rfemur -21.1186 -6.85188 10.6022
rtibia 85.532
rfoot 7.91219 -19.2164
rtoes 12.2703
lfemur -75.8782 -0.82296 -2.55557
ltibia 79.9061
lfoot -4.38918 -5.90671
ltoes -2.99712
86
root 8.17508 24.907 6.53742 -181.889 -10.4447 -186.389
lowerback 27.3503 2.88826 1.93735
upperback 5.54752 3.06748 -0.914996
thorax -8.75426 0.924768 -3.09975
lowerneck -11.2443 -1.42551 -2.63751
upperneck 12.4671 -1.0139 -4.97332
head 5.61135 -1.08276 -1.22505
rclavicle 3.57812e-014 3.26007e-014
rhumerus 15.7841 17.9165 -50.4566
rradius 64.7472
rwrist 6.29777
rhand -24.1026 4.78356
rfingers 7.12502
rthumb 2.37829 -25.1829
lclavicle 3.57812e-014 3.26007e-014
lhumerus -23.6347 -3.20092 51.0151
lradius 71.2464
lwrist -0.319311
lhand -27.6184 -13.267
lfingers 7.12502
lthumb -1.01735 16.7104
rfemur -23.7073 -8.56661 9.33707
rtibia 90.2539
rfoot 5.31406 -18.6604
rtoes 12.3944
lfemur -74.8655 -1.71579 -3.12299
ltibia 78.4381
lfoot -4.32577 -5.48901
ltoes -2.37056
87
root 8.0191 25.0775 6.19268 -181.812 -10.3802 -186.826
lowerback 27.5363 2.87255 1.73297
upperback 5.64078 2.95297 -0.99208
thorax -8.75698 0.863071 -3.03414
lowerneck -10.9318 -1.47295 -2.7024
upperneck 12.2997 -1.08701 -5.04936
head 5.50514 -1.12161 -1.23902
rclavicle -1.63003e-014 7.15625e-015
rhumerus 13.9966 18.6831 -51.6351
rradius 61.7474
rwrist 6.74769
rhand -23.976 4.30234
rfingers 7.12502
rthumb 2.50054 -25.6627
lclavicle -1.63003e-014 7.15625e-015
lhumerus -24.8276 -3.19355 53.636
lradius 70.0035
lwrist -1.22401
lhand -27.7374 -13.3237
lfingers 7.12502
lthumb -1.13233 16.653
rfemur -26.3273 -10.2977 8.30066
rtibia 94.5667
rfoot 2.79399 -17.7817
rtoes 12.005
lfemur -73.9432 -2.44403 -3.60691
ltibia 77.0486
lfoot -4.32915 -5.28801
ltoes -2.00568
88
root 7.86137 25.2319 5.84496 -181.712 -10.2672 -187.117
lowerback 27.6596 2.87347 1.64816
upperback 5.72703 2.90205 -1.02979
thorax -8.72698 0.831819 -3.012
lowerneck -10.6634 -1.54705 -2.80406
upperneck 12.1617 -1.19312 -5.07777
head 5.41585 -1.17547 -1.23518
rclavicle 8.34896e-015 -2.62396e-014
rhumerus 12.1978 19.1929 -52.765
rradius 58.5963
rwrist 7.22273
rhand -23.8071 3.85067
rfingers 7.12502
rthumb 2.66369 -26.1124
lclavicle 8.34896e-015 -2.62396e-014
lhumerus -25.8745 -3.08947 56.2043
lradius 68.6146
lwrist -1.9765
lhand -27.8711 -13.4129
lfingers 7.12502
lthumb -1.26143 16.5631
rfemur -28.968 -12.0148 7.52846
rtibia 98.4561
rfoot 0.385716 -16.6844
rtoes 11.1951
lfemur -73.078 -3.00752 -4.01042
ltibia 75.7224
lfoot -4.3801 -5.281
ltoes -1.90751
89
root 7.70324 25.3712 5.4941 -181.602 -10.1082 -187.282
lowerback 27.7521 2.89436 1.65538
upperback 5.80575 2.90958 -1.03724
thorax -8.6827 0.82814 -3.02762
lowerneck -10.4457 -1.63935 -2.92995
upperneck 12.0563 -1.32153 -5.0604
head 5.34571 -1.23887 -1.21544
rclavicle 2.54444e-014 -2.62396e-014
rhumerus 10.3678 19.4281 -53.8536
rradius 55.3508
rwrist 7.76861
rhand -23.6156 3.44985
rfingers 7.12502
rthumb 2.84863 -26.5109
lclavicle 2.54444e-014 -2.62396e-014
lhumerus -26.8141 -2.88867 58.6727
lradius 67.1341
lwrist -2.51721
lhand -27.9898 -13.4879
lfingers 7.12502
lthumb -1.37602 16.4874
rfemur -31.6218 -13.6935 7.04044
rtibia 101.917
rfoot -1.89344 -15.4904
rtoes 10.0922
lfemur -72.2353 -3.41331 -4.35014
ltibia 74.4417
lfoot -4.4544 -5.43894
ltoes -2.04811
